/* XPM */
static char *_fa8f3a9a81c4b9588d2e4f7508ea172[] = {
/* columns rows colors chars-per-pixel */
"128 128 2 1 ",
"  c #231F20",
". c None",
/* pixels */
"................................................................................................................................",
"................................................................................................................................",
"................................................................................................................................",
"................................................................................................................................",
"................................................................................................................................",
"................................................................................................................................",
"................................................................................................................................",
"................................................................................................................................",
"................................................................................................................................",
"................................................................................................................................",
"................................................................................................................................",
"................................................................................................................................",
"................................................................................................................................",
"................................................................................................................................",
"................................................................................................................................",
"................................................................................................................................",
"................................................................................................................................",
"................................................................................................................................",
"................................................................................................................................",
"................................................................................................................................",
"................................................................................................................................",
"................................................................................................................................",
"......................................................................                ..........................................",
"...................................................................                     ........................................",
"...............................................................                          .......................................",
".............................................................                            ....   ................................",
"..........................................................                               ....     ..............................",
"........................................................                                 ....       ............................",
".......................................................                                  ....         ..........................",
".....................................................                                    ....          .........................",
"...................................................                        ......        ....            .......................",
"..................................................                   ............        ....             ......................",
".................................................                 ...............        ....              .....................",
"................................................               ..................        ....                ...................",
"...............................................              ....................        ......               ..................",
".............................................              ......................        ........              .................",
"............................................             .................. .....        ..........             ................",
"............................................            ..................  .....        ...........             ...............",
"...........................................            ...................  .....        .............            ..............",
"..........................................           ....................   .....        ..............           ..............",
".........................................           ....................    .....        ...............           .............",
"........................................           ....................     .....        ................           ............",
"........................................          .....................     .....        .................           ...........",
".......................................          .....................      .....        ..................          ...........",
"......................................           ....................       .....        ..    .............          ..........",
"......................................          .....................       .....        ..      ............          .........",
".....................   .....   .....          .....................        .....        ..       ...........          .........",
"....................    ....     ....  ...    .....  ..............         .....        ..        ...........          ........",
"....................    .....    ...  .....   .....   ............          .....        ..         ...........         ........",
"....................    ....     ...  .....  .....    ............          .....        ..          ..........          .......",
"............ .......     ....   ...........  ....      ..........           .....        .....       ...........         .......",
"............        ....    ..........   .  .....       ........            .....        ......      ...........          ......",
"............        ....     .........     .....         ......             .....        .......      ...........         ......",
"............        ....     .........     .....         ......             .....        .......      ...........         ......",
"............        .....   ......         ....           ....              .....        .......      ............         .....",
"................    .............         .....            ..               .....        ......       ............         .....",
"................    .............         ....             ..               .....        .....       .............         .....",
"................    .............         ....                              .....                   ...............        .....",
"................    .............        .....                              .....                 .................         ....",
"........    ........    ....     ......  ....                               .....                  ................         ....",
"........    ........    ....     ......  ....                               .....                    ..............         ....",
"........    ........    .....    ......  ....                               .....                      .............        ....",
"........    ........    ....     ...... .....                     ..        .....                       ............        ....",
"............        ....     ........   .....        ..           ..        .....        .               ...........        ....",
"............        ....    .........   ....         ..          ..         .....        .......          ..........         ...",
"............        ....     ........   ....         ...        ...         .....        .........        ..........         ...",
"............        ....    .........   ....         ....       ...         .....        ..........        .........         ...",
"...     ........        .....        .......         .....     ....         .....        ...........       .........         ...",
"...     ........        .....        .......         ......   .....         .....        ............       ........         ...",
"...     ........        .....        .......         ......  ......         .....        ............       ........         ...",
"...     ........        .....        .......         ..............         .....        .............      ........         ...",
"............    ........    ....        ....         ..............         .....        .............      ........         ...",
"............    ........    .....       .....        ..............         .....        .............      ........         ...",
"............    ........     ....       .....        ..............         .....        .............      ........        ....",
"............    ........    .....       .....         .............         .....        .............      ........        ....",
"............    .........    ....        ....         .............         .....        .............      ........        ....",
"........    ....    ........     ....    ....         .............         .....        .............      .......         ....",
"........    ....    .........    ....    .....         ............         .....        ............       .......         ....",
"........    ....    ........     ...     .....         ............         .....        ............       .......         ....",
"........    ....    .........             ....          ...........         .....        ...........       ........        .....",
"....................         ....         .....         ...........         .....        ...........       .......         .....",
"....................         ....         .....          ..........         .....        ..........       ........         .....",
"....................         .....         .....         ..........         .....        .........        ........         .....",
"....................         .....         .....        ...........         .....        .......         ........         ......",
"........................     ....          ......      ............         .....                       .........         ......",
"........................     ....           .....     .............         .....                       ........          ......",
"........................     ....            .....   ..............         .....                      .........         .......",
"........................    .....            .....  ...............         .....                    ..........          .......",
"............................     ...          .....................         .....                   ...........         ........",
"............................     ....         .....................         .....                 ............          ........",
"............................     ....          ....................         .................................          .........",
"............................     .....          ...................         .................................          .........",
"......................................           ..................         ................................          ..........",
".......................................          ..................         ...............................          ...........",
"........................................          .................         ..............................           ...........",
"........................................           ................         .............................           ............",
".........................................           ...............         ............................           .............",
"..........................................           ..............         ...........................           ..............",
"...........................................            ............         ..........................            ..............",
"............................................            ...........         ........................             ...............",
".............................................             .........         .......................             ................",
".............................................              ........         .....................              .................",
"...............................................              ......         ...................               ..................",
"................................................               ....         .................                ...................",
".................................................              ....         ..............                 .....................",
"..................................................             ....         ...........                   ......................",
"....................................................           ....          ...                         .......................",
".....................................................          ....                                    .........................",
".......................................................        ....                                   ..........................",
"........................................................       ....                                 ............................",
"..........................................................     ....                               ..............................",
".............................................................  ....                            .................................",
"...................................................................                          ...................................",
"....................................................................                     .......................................",
"........................................................................            ............................................",
"................................................................................................................................",
"................................................................................................................................",
"................................................................................................................................",
"................................................................................................................................",
"................................................................................................................................",
"................................................................................................................................",
"................................................................................................................................",
"................................................................................................................................",
"................................................................................................................................",
"................................................................................................................................",
"................................................................................................................................",
"................................................................................................................................",
"................................................................................................................................"
};
