/* XPM */
static char *f44984a08c9349d9fcc1bbc78e9e0879[] = {
/* columns rows colors chars-per-pixel */
"64 64 2 1 ",
"  c #231F20",
". c None",
/* pixels */
"................................................................",
"................................................................",
"................................................................",
"................................................................",
"................................................................",
"................................................................",
"................................................................",
"................................................................",
"................................................................",
"................................................................",
"................................................................",
"...................................         ....................",
"...............................             ....................",
".............................               ..   ...............",
"...........................                 ..     .............",
".........................           ....    ..       ...........",
"........................        .........   ...       ..........",
".......................       ...........   ....       .........",
"......................      ......... ...   ......      ........",
".....................      .......... ...   .......      .......",
"....................      ..........  ...   ........      ......",
"....................     ..........   ...   .........      .....",
"...................     ..........    ...   ..  ......     .....",
"..........  ..  ..     ...........    ...   .    ......     ....",
"..........  ..  .. ..  ..  ......     ...   ..    .....     ....",
"......    ..  ....... ..    ....      ...   ...    .....     ...",
"......    ..  .....   ..     ...      ...   ....   ......    ...",
"........  .......    ..      ..       ...   ....   ......    ...",
"........  ......     ..               ...    ..   .......     ..",
".... .....  ...  ..  ..               ...         ........    ..",
"....  ....  ..  ...  .                ...          .......    ..",
"....  ....  ..  ... ..           .    ...           ......    ..",
"......    ..  ....  ..    ..    ..    ...   ....     .....    ..",
"......    ..  ....  ..    ...   ..    ...   ......   .....    ..",
"..  ....    ..    ....    ...  ...    ...   ......    ....    ..",
"..  ....    ..     ...    ........    ...   .......   ....    ..",
"......  ....  ..    ..     .......    ...   .......   ....    ..",
"......  ....  ..    ..     .......    ...   .......   ....    ..",
"....  ..  ....  ... ...    .......    ...   .......   ....    ..",
"....  ..  ....       ..     ......    ...   ......    ...     ..",
"..........    ...    ..     ......    ...   ......   ....     ..",
"..........    ...    ...    ......    ...   .....    ....    ...",
"............  ..      ...  .......    ...           ....     ...",
"............  ..      ... ........    ...          .....    ....",
"..............  ..     ...........    ...         .....     ....",
"..............  ...     ..........    ................     .....",
"...................     ..........    ................     .....",
"....................     .........    ...............     ......",
".....................     ........    ..............     .......",
"......................      ......    ............       .......",
".......................      .....    ...........       ........",
"........................       ...    .........        .........",
".........................       ..    ......         ...........",
"..........................     ...                  ............",
"............................   ...                ..............",
"..............................  ..              ................",
"..................................            ..................",
"................................................................",
"................................................................",
"................................................................",
"................................................................",
"................................................................",
"................................................................",
"................................................................"
};
