/* XPM */
static char *_434e1d7430f4344d1543f3046af97b2[] = {
/* columns rows colors chars-per-pixel */
"32 32 133 2 ",
"   c black",
".  c #010101",
"X  c #020202",
"o  c gray1",
"O  c #040404",
"+  c #060606",
"@  c #070707",
"#  c gray3",
"$  c #090909",
"%  c gray4",
"&  c #0B0B0B",
"*  c #0C0C0C",
"=  c gray5",
"-  c #0E0E0E",
";  c gray6",
":  c #101010",
">  c #111111",
",  c gray7",
"<  c gray8",
"1  c #151515",
"2  c #161616",
"3  c gray9",
"4  c #181818",
"5  c #191919",
"6  c gray10",
"7  c gray11",
"8  c #1D1D1D",
"9  c #1F1F20",
"0  c gray13",
"q  c #222323",
"w  c #232323",
"e  c #232424",
"r  c gray14",
"t  c #252525",
"y  c #262526",
"u  c #262627",
"i  c #272727",
"p  c #272828",
"a  c #282828",
"s  c gray16",
"d  c #2A2A2A",
"f  c gray17",
"g  c #2D2D2D",
"h  c gray18",
"j  c #2F2F2F",
"k  c gray19",
"l  c #303130",
"z  c #313131",
"x  c #323232",
"c  c gray20",
"v  c #333334",
"b  c #343434",
"n  c #343435",
"m  c #353535",
"M  c gray21",
"N  c #373737",
"B  c gray22",
"V  c #393939",
"C  c #39393A",
"Z  c #393A3A",
"A  c gray23",
"S  c #3C3C3C",
"D  c #3C3D3D",
"F  c gray24",
"G  c #3D3D3E",
"H  c #3D3E3E",
"J  c #3E3E3E",
"K  c #3E3E3F",
"L  c #3F3F3F",
"P  c #3F3F40",
"I  c gray25",
"U  c #404041",
"Y  c #404141",
"T  c #414141",
"R  c #414142",
"E  c gray26",
"W  c #424343",
"Q  c #434343",
"!  c #444444",
"~  c #444445",
"^  c #444545",
"/  c gray27",
"(  c #454546",
")  c #454646",
"_  c gray28",
"`  c #474748",
"'  c #484848",
"]  c #484849",
"[  c #484949",
"{  c #494A4A",
"}  c gray29",
"|  c #4A4A4B",
" . c #4A4B4B",
".. c #4B4B4C",
"X. c #4C4C4C",
"o. c #4C4C4D",
"O. c #4C4D4D",
"+. c gray30",
"@. c #4D4D4E",
"#. c #4E4E4F",
"$. c #4E4F4F",
"%. c gray31",
"&. c #4F4F50",
"*. c #505050",
"=. c #505051",
"-. c #505151",
";. c #515151",
":. c #515152",
">. c #515252",
",. c gray32",
"<. c #525253",
"1. c #525353",
"2. c #535354",
"3. c gray33",
"4. c #545556",
"5. c #555656",
"6. c #565656",
"7. c gray34",
"8. c #585858",
"9. c #585859",
"0. c #585959",
"q. c #59595A",
"w. c #5A5A5A",
"e. c #5A5A5B",
"r. c #5B5B5B",
"t. c #5B5C5C",
"y. c #5D5C5D",
"u. c #5D5D5D",
"i. c gray37",
"p. c #5F6160",
"a. c gray38",
"s. c #616262",
"d. c None",
/* pixels */
"d.d.d.d.d.d.d.d.d.d.d.d.d.d.d.d.d.d.d.d.d.d.d.d.d.d.d.d.d.d.d.d.",
"d.d.d.d.d.d.d.d.d.d.d.d.d.d.d.d.d.d.d.d.d.d.d.d.d.d.d.d.d.d.d.d.",
"d.d.d.d.d.d.d.d.d.d.d.d.d.d.d.d.d.d.d.d.d.d.d.d.d.d.d.d.d.d.d.d.",
"d.d.d.d.d.d.d.d.d.d.d.d.d.d.d.d.d.d.d.d.d.d.d.d.d.d.d.d.d.d.d.d.",
"d.d.d.d.d.d.d.d.d.d.d.d.d.d.d.Q 5         C d.=.d.d.d.d.d.d.d.d.",
"d.d.d.d.d.d.d.d.d.d.d.d.d.C       8 M a   B d.  1 =.d.d.d.d.d.d.",
"d.d.d.d.d.d.d.d.d.d.d.9.*   * / d.d.d.d.  j d.b     / d.d.d.d.d.",
"d.d.d.d.d.d.d.d.d.d.=.+   M d.d.d.d.+.d.+ 0 d.d.4.    G d.d.d.d.",
"d.d.d.d.d.d.d.d.d.d.#   / d.d.d.d./ h d.# u d.d.d.d.*   / d.d.d.",
"d.d.d.d.d.r.d.d.d.C   M d.d.d.d.d.  N d., k +.G d.d.=.    d.d.d.",
"d.d.d.=.=.C / L d.9./ d.A Q d.d.0   L d.* c =.  a d.d.G   M d.d.",
"d.d.d.1 7 d.' d.u.u +.d.  # d./     G d.# a d.'   d.d.d.+   2.d.",
"d.d.d.d.G d.d.d.u 5 d.Q     1 +     G d.4 & C 1 G d.d.d.k   W d.",
"d.d.C u.9.Q =.' d.=.4.5 + *     5   L d.5   ;   , X.d.d...  k d.",
"d.d.d.8 , +.G u.d.+.d.  0 =.# B %.  S d.# u d.d.w o d.d.4.  j d.",
"d.P d.t.k M 9.G * d.d.  1 d.d.d.4.  C d.# a d.d.d.  Q d.4.  h d.",
"d.d.1.f d.d.W 9.k k d.*   d.d.d.=.  G d.# u d.d.d.0 C d.=.  k d.",
"d.d.G s.C d.d.k / 5 d.Q   W d.d.%.  G d.# a d.d.d.  / d.Q   G d.",
"d.d.d.d.d.7 a d.a   d.d.  1 d.d.=.  G d.@ e d.d.0 O d.d.1   +.d.",
"d.d.d.d.d.p.u d.a   a d.Q 9.d.d.%.  G d.*   1     &.d.'   r d.d.",
"d.d.d.d.d.d.d.C d.u   / d.d.d.d.%.  C d.+.Q P / d.d.d.,   =.d.d.",
"d.d.d.d.d.d.d.d.d.d.    t.d.d.d.+.  k d.d.d.d.d.d.d.p   k d.d.d.",
"d.d.d.d.d.d.d.d.d.d.W     ' d.d.+.  k d.d.d.d.d.d.u   8 d.d.d.d.",
"d.d.d.d.d.d.d.d.d.d.d.'     B d.2.  M d.d.d.d.' #   u d.d.d.d.d.",
"d.d.d.d.d.d.d.d.d.d.d.d.=.*   r.r.  5 ' ' C       C d.d.d.d.d.d.",
"d.d.d.d.d.d.d.d.d.d.d.d.d.d.! s.1.          # c d.d.d.d.d.d.d.d.",
"d.d.d.d.d.d.d.d.d.d.d.d.d.d.d.d.d.A M M C / 9.d.d.d.d.d.d.d.d.d.",
"d.d.d.d.d.d.d.d.d.d.d.d.d.d.d.d.d.d.d.d.d.d.d.d.d.d.d.d.d.d.d.d.",
"d.d.d.d.d.d.d.d.d.d.d.d.d.d.d.d.d.d.d.d.d.d.d.d.d.d.d.d.d.d.d.d.",
"d.d.d.d.d.d.d.d.d.d.d.d.d.d.d.d.d.d.d.d.d.d.d.d.d.d.d.d.d.d.d.d.",
"d.d.d.d.d.d.d.d.d.d.d.d.d.d.d.d.d.d.d.d.d.d.d.d.d.d.d.d.d.d.d.d.",
"d.d.d.d.d.d.d.d.d.d.d.d.d.d.d.d.d.d.d.d.d.d.d.d.d.d.d.d.d.d.d.d."
};
