/* XPM */
static char *f617f9e9cd8342c5c3fdffc21fb2c89f[] = {
/* columns rows colors chars-per-pixel */
"16 16 81 1 ",
"  c black",
". c #040404",
"X c gray2",
"o c #080807",
"O c gray3",
"+ c #0A0B0B",
"@ c #0B0B0B",
"# c #0C0B0B",
"$ c #111111",
"% c gray7",
"& c #161616",
"* c gray9",
"= c #181818",
"- c #1C1B1B",
"; c #1C1C1B",
": c #1D1D1D",
"> c #1D1D1E",
", c #1E1E1E",
"< c #1F1F20",
"1 c #202020",
"2 c #222222",
"3 c #232323",
"4 c #232324",
"5 c #252626",
"6 c gray15",
"7 c #272727",
"8 c #282828",
"9 c #282829",
"0 c gray16",
"q c #29292A",
"w c #2A2A2A",
"e c gray17",
"r c #2B2C2D",
"t c #2C2D2C",
"y c #2D2D2E",
"u c #2E2D2E",
"i c #2D2E2E",
"p c #2E2F2F",
"a c #2F2F30",
"s c #2F3030",
"d c gray19",
"f c #313131",
"g c #313132",
"h c #313232",
"j c #323233",
"k c #343434",
"l c #343435",
"z c #353535",
"x c #363535",
"c c #353636",
"v c #363736",
"b c #373737",
"n c gray22",
"m c #383939",
"M c #393939",
"N c #393A3A",
"B c gray23",
"V c #3B3B3C",
"C c #3C3C3C",
"Z c #3E3E3E",
"A c #3F3F40",
"S c #3F4040",
"D c gray25",
"F c #424142",
"G c gray26",
"H c #434343",
"J c #444445",
"K c #444545",
"L c #444446",
"P c #454646",
"I c #464646",
"U c #464647",
"Y c #464747",
"T c #4B4B4B",
"R c #4C4C4C",
"E c #4E4E4F",
"W c #4F4F50",
"Q c #545354",
"! c gray33",
"~ c #5B5B5B",
"^ c None",
/* pixels */
"^^^^^^^^^^^^^^^^",
"^^^^^^^^^^^^^^^^",
"^^^^^^^,$$7Yj^^^",
"^^^^^j#z^^a^Xp^^",
"^^^^^@^^AZz^^oj^",
"^^V~DYj^XAz7^^@^",
"^TD^Qz  .E1$a^1,",
"^YzY^9,^eNe^e^b&",
"^WQYlp,^ez7^kSp-",
"^^^D&zY^7Vejr^$N",
"^^^^N@^^<Y^^^*7^",
"^^^^^7 ^pN^^*1^^",
"^^^^^^zEz$e&p^^^",
"^^^^^^^^D=7^^^^^",
"^^^^^^^^^^^^^^^^",
"^^^^^^^^^^^^^^^^"
};
